<svg width="30" height="30" viewBox="0 0 30 30" fill="none" xmlns="http://www.w3.org/2000/svg">
<mask id="mask0_26_29255" style="mask-type:alpha" maskUnits="userSpaceOnUse" x="0" y="0" width="36" height="36">
<path d="M4.5 28.5C4.5 23.5294 8.52944 19.5 13.5 19.5H22.5C27.4706 19.5 31.5 23.5294 31.5 28.5V33H4.5V28.5Z" fill="black"/>
<path opacity="0.35" fill-rule="evenodd" clip-rule="evenodd" d="M24.3347 4.42868C23.7203 5.60565 22.4883 6.4091 21.0687 6.4091H17.3869C15.3535 6.4091 13.7051 8.05751 13.7051 10.0909V15.9117C14.8721 16.8755 16.3687 17.4546 18.0005 17.4546C21.7285 17.4546 24.7505 14.4325 24.7505 10.7046V6.4091C24.7505 5.70442 24.6021 5.03442 24.3347 4.42868Z" fill="black"/>
<path fill-rule="evenodd" clip-rule="evenodd" d="M24.3342 4.42868C23.5728 2.70385 21.8475 1.5 19.8409 1.5H11.25V10.7045C11.25 12.8007 12.2054 14.6736 13.7045 15.9117V10.0909C13.7045 8.0575 15.353 6.40909 17.3864 6.40909H21.0682C22.4878 6.40909 23.7198 5.60565 24.3342 4.42868Z" fill="url(#paint0_linear_26_29255)"/>
</mask>
<g mask="url(#mask0_26_29255)">
<path d="M0 0H36V36H0V0Z" fill="url(#paint1_linear_26_29255)"/>
</g>
<defs>
<linearGradient id="paint0_linear_26_29255" x1="15.75" y1="1.5" x2="15.75" y2="15.9117" gradientUnits="userSpaceOnUse">
<stop/>
<stop offset="1" stop-opacity="0.5"/>
</linearGradient>
<linearGradient id="paint1_linear_26_29255" x1="11.5" y1="11" x2="27" y2="32" gradientUnits="userSpaceOnUse">
<stop stop-color="white"/>
<stop offset="1" stop-color="white" stop-opacity="0"/>
</linearGradient>
</defs>
</svg>
